<svg width="292" height="132" viewBox="0 0 292 132" fill="none" xmlns="http://www.w3.org/2000/svg">
<path d="M12.0994 84.7273H21.3551V63.8125H21.7386C23.196 66.6761 26.2386 70.6903 32.9886 70.6903C42.2443 70.6903 49.1733 63.3523 49.1733 50.4148C49.1733 37.3239 42.0398 30.2159 32.9631 30.2159C26.0341 30.2159 23.1449 34.3835 21.7386 37.2216H21.2017V30.7273H12.0994V84.7273ZM21.1761 50.3636C21.1761 42.7443 24.4489 37.8097 30.4062 37.8097C36.5682 37.8097 39.7386 43.0511 39.7386 50.3636C39.7386 57.7273 36.517 63.0966 30.4062 63.0966C24.5 63.0966 21.1761 57.983 21.1761 50.3636ZM57.0994 70H66.3551V46.9119C66.3551 41.9261 70.1136 38.3977 75.2017 38.3977C76.7614 38.3977 78.7045 38.679 79.4972 38.9347V30.4205C78.6534 30.267 77.196 30.1648 76.1733 30.1648C71.6733 30.1648 67.9148 32.7216 66.483 37.2727H66.0739V30.7273H57.0994V70ZM85.6463 70H94.902V30.7273H85.6463V70ZM90.2997 25.1534C93.2401 25.1534 95.6435 22.9034 95.6435 20.142C95.6435 17.3551 93.2401 15.1051 90.2997 15.1051C87.3338 15.1051 84.9304 17.3551 84.9304 20.142C84.9304 22.9034 87.3338 25.1534 90.2997 25.1534ZM139.499 30.7273H129.656L120.604 59.9006H120.195L111.17 30.7273H101.3L115.286 70H125.513L139.499 30.7273ZM156.08 70.7926C162.242 70.7926 165.924 67.9034 167.612 64.6051H167.918V70H176.816V43.7159C176.816 33.3352 168.353 30.2159 160.862 30.2159C152.603 30.2159 146.262 33.8977 144.217 41.0568L152.859 42.2841C153.779 39.5994 156.387 37.2983 160.913 37.2983C165.208 37.2983 167.56 39.4972 167.56 43.358V43.5114C167.56 46.1705 164.773 46.2983 157.844 47.0398C150.225 47.858 142.938 50.1335 142.938 58.9801C142.938 66.7017 148.589 70.7926 156.08 70.7926ZM158.484 63.9915C154.623 63.9915 151.862 62.2273 151.862 58.8267C151.862 55.2727 154.955 53.7898 159.097 53.2017C161.526 52.8693 166.384 52.2557 167.586 51.2841V55.9119C167.586 60.2841 164.058 63.9915 158.484 63.9915ZM205.734 30.7273H197.987V21.3182H188.731V30.7273H183.157V37.8864H188.731V59.7216C188.68 67.1108 194.049 70.7415 201.004 70.5369C203.637 70.4602 205.452 69.9489 206.45 69.6165L204.89 62.3807C204.379 62.5085 203.33 62.7386 202.18 62.7386C199.853 62.7386 197.987 61.9205 197.987 58.1875V37.8864H205.734V30.7273ZM230.439 70.767C239.592 70.767 245.882 66.2926 247.518 59.4659L238.876 58.4943C237.624 61.8182 234.555 63.5568 230.567 63.5568C224.584 63.5568 220.621 59.6193 220.544 52.8949H247.902V50.0568C247.902 36.2756 239.618 30.2159 229.953 30.2159C218.703 30.2159 211.365 38.4744 211.365 50.5938C211.365 62.9176 218.601 70.767 230.439 70.767ZM220.57 46.6562C220.851 41.6449 224.558 37.4261 230.081 37.4261C235.399 37.4261 238.979 41.3125 239.03 46.6562H220.57ZM284.752 70H250.925V77.3892H284.752V70Z" fill="black"/>
<path d="M185.51 93.8182H180.345V87.5455H174.175V93.8182H170.459V98.5909H174.175V113.148C174.141 118.074 177.72 120.494 182.357 120.358C184.112 120.307 185.322 119.966 185.987 119.744L184.947 114.92C184.607 115.006 183.908 115.159 183.141 115.159C181.589 115.159 180.345 114.614 180.345 112.125V98.5909H185.51V93.8182ZM190.67 120H196.841V104.608C196.841 101.284 199.347 98.9318 202.739 98.9318C203.778 98.9318 205.074 99.1193 205.602 99.2898V93.6136C205.04 93.5114 204.068 93.4432 203.386 93.4432C200.386 93.4432 197.881 95.1477 196.926 98.1818H196.653V93.8182H190.67V120ZM216.72 120.528C220.828 120.528 223.283 118.602 224.408 116.403H224.612V120H230.544V102.477C230.544 95.5568 224.902 93.4773 219.908 93.4773C214.402 93.4773 210.175 95.9318 208.811 100.705L214.572 101.523C215.186 99.733 216.925 98.1989 219.942 98.1989C222.805 98.1989 224.374 99.6648 224.374 102.239V102.341C224.374 104.114 222.516 104.199 217.896 104.693C212.817 105.239 207.959 106.756 207.959 112.653C207.959 117.801 211.726 120.528 216.72 120.528ZM218.322 115.994C215.749 115.994 213.908 114.818 213.908 112.551C213.908 110.182 215.97 109.193 218.732 108.801C220.351 108.58 223.589 108.17 224.391 107.523V110.608C224.391 113.523 222.038 115.994 218.322 115.994ZM248.169 120.511C254.749 120.511 258.942 116.608 259.385 111.051H253.487C252.959 113.864 250.93 115.483 248.22 115.483C244.368 115.483 241.879 112.261 241.879 106.909C241.879 101.625 244.419 98.4545 248.22 98.4545C251.186 98.4545 253.01 100.364 253.487 102.886H259.385C258.959 97.2102 254.527 93.4773 248.135 93.4773C240.464 93.4773 235.624 99.017 235.624 107.011C235.624 114.938 240.345 120.511 248.169 120.511ZM276.043 120.511C282.145 120.511 286.338 117.528 287.429 112.977L281.668 112.33C280.832 114.545 278.787 115.705 276.128 115.705C272.139 115.705 269.497 113.08 269.446 108.597H287.685V106.705C287.685 97.517 282.162 93.4773 275.719 93.4773C268.219 93.4773 263.327 98.983 263.327 107.062C263.327 115.278 268.151 120.511 276.043 120.511ZM269.463 104.438C269.651 101.097 272.122 98.2841 275.804 98.2841C279.349 98.2841 281.736 100.875 281.77 104.438H269.463Z" fill="#2F80ED"/>
</svg>
